# xmcd CD database file
#
# Track frame offsets:
#	183
#	19243
#	40200
#	59288
#	78655
#	104900
#	119480
#	141885
#	163155
#	184183
#	195750
#	217855
#	236310
#	249250
#	268410
#
# Disc length: 3813 seconds
#
# Revision: 6
# Processed by: cddbd v1.5.2PL0 Copyright (c) Steve Scherf et al.
# Submitted via: CDex 1.70beta2
#
DISCID=d60ee30f
DTITLE=Louis Armstrong - Verve Silver Collection
DYEAR=1957
DGENRE=Jazz
TTITLE0=Top Hat, White Tie And Tails
TTITLE1=Have You Met Miss Jones
TTITLE2=I Only Have Eyes For You
TTITLE3=Stormy Weather
TTITLE4=Home
TTITLE5=East Of The Sun (And West Of The Moon)
TTITLE6=You're Blase
TTITLE7=Body And Soul
TTITLE8=When Your Lover Has Gone
TTITLE9=You're The Top
TTITLE10=Nobody Knows The Trouble I've Seen
TTITLE11=We'll Be Together Again
TTITLE12=I've Got The World On A String
TTITLE13=Do Nothin' Till You Hear From Me
TTITLE14=I Gotta Right To Sing The Blues
EXTD=[Catégorie: Blues]\n[Enregistrement: 1958, 59] YEAR: 1957
EXTT0=
EXTT1=
EXTT2=
EXTT3=
EXTT4=
EXTT5=
EXTT6=
EXTT7=
EXTT8=
EXTT9=
EXTT10=
EXTT11=
EXTT12=
EXTT13=
EXTT14=
PLAYORDER=
